<?xml version="1.0" standalone="no"?>
<!DOCTYPE svg PUBLIC "-//W3C//DTD SVG 20010904//EN"
 "http://www.w3.org/TR/2001/REC-SVG-20010904/DTD/svg10.dtd">
<svg version="1.0" xmlns="http://www.w3.org/2000/svg"
 width="310.000000pt" height="310.000000pt" viewBox="0 0 310.000000 310.000000"
 preserveAspectRatio="xMidYMid meet">
<metadata>
Created by potrace 1.14, written by Peter Selinger 2001-2017
</metadata>
<g transform="translate(0.000000,310.000000) scale(0.100000,-0.100000)"
fill="#000000" stroke="none">
<path d="M322 2288 c-9 -9 -12 -186 -12 -734 0 -797 -4 -753 63 -740 20 4 45
21 68 47 l35 41 55 -30 c79 -45 166 -58 276 -43 118 16 197 56 268 133 100
108 135 211 137 399 1 161 -23 244 -100 348 -86 117 -215 181 -363 181 -63 0
-90 -6 -150 -30 -41 -17 -78 -32 -84 -33 -6 -1 -11 81 -13 228 -2 168 -6 231
-15 237 -20 12 -152 9 -165 -4z m472 -566 c6 -5 28 -15 48 -21 55 -18 131
-106 157 -183 29 -85 30 -260 2 -340 -44 -127 -103 -176 -241 -198 -64 -10
-83 -10 -130 4 -31 9 -72 30 -93 47 l-37 30 0 293 0 292 28 26 c23 22 58 41
112 62 21 8 140 -2 154 -12z"/>
<path d="M1441 2286 c-17 -21 -10 -1194 7 -1251 43 -138 113 -188 305 -218 36
-6 47 15 47 87 0 72 -6 86 -40 86 -36 0 -89 37 -114 80 -20 34 -21 51 -24 625
-2 442 -6 591 -15 597 -22 14 -154 9 -166 -6z"/>
<path d="M1931 1866 c-7 -9 -11 -41 -9 -83 l3 -68 275 -5 c151 -3 276 -7 278
-8 8 -7 -3 -30 -44 -85 -48 -66 -100 -139 -279 -391 -60 -86 -138 -195 -172
-244 -40 -55 -63 -97 -63 -114 l0 -28 430 0 431 0 -3 78 -3 77 -268 3 c-294 3
-301 4 -260 60 29 40 126 179 246 354 24 35 74 108 112 163 38 55 91 132 117
170 49 72 61 118 32 129 -9 3 -195 6 -414 6 -330 0 -400 -2 -409 -14z"/>
</g>
</svg>
